# xmcd
#
# Track frame offsets:
#	150
#	18810
#	28155
#	46552
#	60220
#	72238
#	86503
#	102740
#	114495
#	130293
#	148347
#	168115
#	179978
#	189192
#	204765
#	215995
#	231087
#
# Disc length: 3296 seconds
#
# Revision: 0
# Processed by: cddbd v1.5.2PL0 Copyright (c) Steve Scherf et al.
# Submitted via: EasyCDDAExtractor 10.2.0.1
#
DISCID=ee0cde11
DTITLE=Various Artist - Zion Music Group  Vol.5
DYEAR=2000
DGENRE=Gospel
TTITLE0=Lesters - Because Of Who He Is
TTITLE1=Solid Gospel - Into The Fire
TTITLE2=New Horizons - Prayer
TTITLE3=In One Accord - Keep On Walking
TTITLE4=Highest Honor - Rise Up And Walk By Faith
TTITLE5=Libbys - I'm An Heir
TTITLE6=Randy Swift - Don't Let Cain Kill Abel
TTITLE7=Southern Pride - Get Out Of The Boat
TTITLE8=Jack Hollingworth - The Greatest Hero
TTITLE9=Don Cox - In My Fathers Eyes
TTITLE10=Manuel Family Band - Gloryland" Hold On
TTITLE11=Linda Ehrhardt - I Can't Get Through
TTITLE12=Gunns  - Not In The Manger
TTITLE13=Freemans  - From Bethleham
TTITLE14=Freemans - Light Of The Stable
TTITLE15=Sherry Ross - The Gift
TTITLE16=Sevilles - One Bright Star
EXTD=
EXTT0=
EXTT1=
EXTT2=
EXTT3=
EXTT4=
EXTT5=
EXTT6=
EXTT7=
EXTT8=
EXTT9=
EXTT10=
EXTT11=
EXTT12=
EXTT13=
EXTT14=
EXTT15=
EXTT16=
PLAYORDER=
